<svg xmlns="http://www.w3.org/2000/svg" viewBox="0 0 600 750"><rect width="600" height="750" fill="#efe8dd"/><ellipse cx="300" cy="640" rx="210" ry="22" fill="#00000014"/><path d="M250 200h100v40c0 30 90 70 90 180s-70 180-140 180-140-70-140-180 90-150 90-180z" fill="#ebe6dc"/><path d="M250 200h100v18H250z" fill="#c8bda8"/><path d="M180 430q120 30 240 0" stroke="#c8bda8" stroke-width="8" fill="none" opacity=".7"/><path d="M300 200c-10-80-60-120-90-140M300 200c20-70 60-110 110-120" stroke="#6b7a55" stroke-width="5" fill="none"/><ellipse cx="205" cy="62" rx="22" ry="10" fill="#8a9a6c" transform="rotate(-30 205 62)"/><ellipse cx="410" cy="80" rx="22" ry="10" fill="#8a9a6c" transform="rotate(20 410 80)"/></svg>