<svg xmlns="http://www.w3.org/2000/svg" viewBox="0 0 800 500"><rect width="800" height="500" fill="#cfe0ec"/><circle cx="660" cy="110" r="46" fill="#fff" opacity=".55"/><rect x="220" y="60" width="360" height="360" fill="#b9c4cc"/><rect x="210" y="50" width="380" height="16" fill="#44505a"/><rect x="250" y="85" width="80" height="55" fill="#dfeaf2" stroke="#fff" stroke-width="6"/><path d="M290.0 85v55M250 112.5h80" stroke="#fff" stroke-width="4"/><rect x="245" y="140" width="90" height="6" fill="#ffffffaa"/><rect x="360" y="85" width="80" height="55" fill="#dfeaf2" stroke="#fff" stroke-width="6"/><path d="M400.0 85v55M360 112.5h80" stroke="#fff" stroke-width="4"/><rect x="355" y="140" width="90" height="6" fill="#ffffffaa"/><rect x="470" y="85" width="80" height="55" fill="#dfeaf2" stroke="#fff" stroke-width="6"/><path d="M510.0 85v55M470 112.5h80" stroke="#fff" stroke-width="4"/><rect x="465" y="140" width="90" height="6" fill="#ffffffaa"/><rect x="250" y="165" width="80" height="55" fill="#dfeaf2" stroke="#fff" stroke-width="6"/><path d="M290.0 165v55M250 192.5h80" stroke="#fff" stroke-width="4"/><rect x="245" y="220" width="90" height="6" fill="#ffffffaa"/><rect x="360" y="165" width="80" height="55" fill="#dfeaf2" stroke="#fff" stroke-width="6"/><path d="M400.0 165v55M360 192.5h80" stroke="#fff" stroke-width="4"/><rect x="355" y="220" width="90" height="6" fill="#ffffffaa"/><rect x="470" y="165" width="80" height="55" fill="#dfeaf2" stroke="#fff" stroke-width="6"/><path d="M510.0 165v55M470 192.5h80" stroke="#fff" stroke-width="4"/><rect x="465" y="220" width="90" height="6" fill="#ffffffaa"/><rect x="250" y="245" width="80" height="55" fill="#dfeaf2" stroke="#fff" stroke-width="6"/><path d="M290.0 245v55M250 272.5h80" stroke="#fff" stroke-width="4"/><rect x="245" y="300" width="90" height="6" fill="#ffffffaa"/><rect x="360" y="245" width="80" height="55" fill="#dfeaf2" stroke="#fff" stroke-width="6"/><path d="M400.0 245v55M360 272.5h80" stroke="#fff" stroke-width="4"/><rect x="355" y="300" width="90" height="6" fill="#ffffffaa"/><rect x="470" y="245" width="80" height="55" fill="#dfeaf2" stroke="#fff" stroke-width="6"/><path d="M510.0 245v55M470 272.5h80" stroke="#fff" stroke-width="4"/><rect x="465" y="300" width="90" height="6" fill="#ffffffaa"/><rect x="250" y="325" width="80" height="55" fill="#dfeaf2" stroke="#fff" stroke-width="6"/><path d="M290.0 325v55M250 352.5h80" stroke="#fff" stroke-width="4"/><rect x="245" y="380" width="90" height="6" fill="#ffffffaa"/><rect x="360" y="325" width="80" height="55" fill="#dfeaf2" stroke="#fff" stroke-width="6"/><path d="M400.0 325v55M360 352.5h80" stroke="#fff" stroke-width="4"/><rect x="355" y="380" width="90" height="6" fill="#ffffffaa"/><rect x="470" y="325" width="80" height="55" fill="#dfeaf2" stroke="#fff" stroke-width="6"/><path d="M510.0 325v55M470 352.5h80" stroke="#fff" stroke-width="4"/><rect x="465" y="380" width="90" height="6" fill="#ffffffaa"/><rect x="365" y="370" width="70" height="50" fill="#0b2545"/><rect y="420" width="800" height="80" fill="#8fb07a"/><rect y="420" width="800" height="10" fill="#7a9a66"/></svg>