<svg xmlns="http://www.w3.org/2000/svg" viewBox="0 0 800 1000"><rect width="800" height="1000" fill="#efe8df"/><path d="M400 600 Q569 358 614 373" stroke="#6f8f63" stroke-width="10" fill="none"/><path d="M400 600 Q569 492 312 303" stroke="#6f8f63" stroke-width="10" fill="none"/><path d="M400 600 Q226 387 443 346" stroke="#6f8f63" stroke-width="10" fill="none"/><path d="M400 600 Q403 429 347 222" stroke="#6f8f63" stroke-width="10" fill="none"/><path d="M400 600 Q292 264 589 376" stroke="#6f8f63" stroke-width="10" fill="none"/><path d="M400 600 Q243 358 217 268" stroke="#6f8f63" stroke-width="10" fill="none"/><path d="M400 600 Q630 254 504 222" stroke="#6f8f63" stroke-width="10" fill="none"/><path d="M400 600 Q560 316 222 355" stroke="#6f8f63" stroke-width="10" fill="none"/><path d="M400 600 Q588 306 214 267" stroke="#6f8f63" stroke-width="10" fill="none"/><circle cx="311" cy="291" r="44" fill="#d98e96"/><circle cx="311" cy="291" r="20" fill="#fff" opacity=".25"/><circle cx="521" cy="507" r="59" fill="#f2c4c4"/><circle cx="521" cy="507" r="27" fill="#fff" opacity=".25"/><circle cx="536" cy="289" r="41" fill="#e7a3a8"/><circle cx="536" cy="289" r="18" fill="#fff" opacity=".25"/><circle cx="391" cy="281" r="58" fill="#f2c4c4"/><circle cx="391" cy="281" r="26" fill="#fff" opacity=".25"/><circle cx="509" cy="491" r="51" fill="#f2c4c4"/><circle cx="509" cy="491" r="23" fill="#fff" opacity=".25"/><circle cx="282" cy="486" r="44" fill="#d98e96"/><circle cx="282" cy="486" r="20" fill="#fff" opacity=".25"/><circle cx="508" cy="362" r="56" fill="#fbe3d6"/><circle cx="508" cy="362" r="25" fill="#fff" opacity=".25"/><circle cx="481" cy="520" r="51" fill="#f7f3ea"/><circle cx="481" cy="520" r="23" fill="#fff" opacity=".25"/><circle cx="509" cy="386" r="56" fill="#d98e96"/><circle cx="509" cy="386" r="25" fill="#fff" opacity=".25"/><circle cx="382" cy="363" r="60" fill="#f7f3ea"/><circle cx="382" cy="363" r="27" fill="#fff" opacity=".25"/><circle cx="320" cy="473" r="37" fill="#f7f3ea"/><circle cx="320" cy="473" r="17" fill="#fff" opacity=".25"/><circle cx="476" cy="421" r="36" fill="#e7a3a8"/><circle cx="476" cy="421" r="16" fill="#fff" opacity=".25"/><circle cx="469" cy="297" r="40" fill="#fbe3d6"/><circle cx="469" cy="297" r="18" fill="#fff" opacity=".25"/><circle cx="312" cy="339" r="64" fill="#fbe3d6"/><circle cx="312" cy="339" r="29" fill="#fff" opacity=".25"/><circle cx="323" cy="389" r="62" fill="#e7a3a8"/><circle cx="323" cy="389" r="28" fill="#fff" opacity=".25"/><circle cx="489" cy="372" r="57" fill="#f2c4c4"/><circle cx="489" cy="372" r="26" fill="#fff" opacity=".25"/><circle cx="453" cy="509" r="39" fill="#e7a3a8"/><circle cx="453" cy="509" r="18" fill="#fff" opacity=".25"/><circle cx="332" cy="480" r="50" fill="#f7f3ea"/><circle cx="332" cy="480" r="22" fill="#fff" opacity=".25"/><circle cx="423" cy="475" r="40" fill="#fbe3d6"/><circle cx="423" cy="475" r="18" fill="#fff" opacity=".25"/><circle cx="413" cy="307" r="57" fill="#fbe3d6"/><circle cx="413" cy="307" r="26" fill="#fff" opacity=".25"/><circle cx="259" cy="433" r="51" fill="#f7f3ea"/><circle cx="259" cy="433" r="23" fill="#fff" opacity=".25"/><circle cx="475" cy="269" r="46" fill="#fbe3d6"/><circle cx="475" cy="269" r="21" fill="#fff" opacity=".25"/><circle cx="514" cy="411" r="50" fill="#f2c4c4"/><circle cx="514" cy="411" r="22" fill="#fff" opacity=".25"/><circle cx="307" cy="377" r="62" fill="#f2c4c4"/><circle cx="307" cy="377" r="28" fill="#fff" opacity=".25"/><circle cx="293" cy="395" r="42" fill="#f2c4c4"/><circle cx="293" cy="395" r="19" fill="#fff" opacity=".25"/><circle cx="342" cy="398" r="58" fill="#e7a3a8"/><circle cx="342" cy="398" r="26" fill="#fff" opacity=".25"/><path d="M360 600 L380 960 H420 L440 600z" fill="#7d9a6e"/><path d="M340 640 H460 L450 700 H350z" fill="#f4efe6"/></svg>