<svg xmlns="http://www.w3.org/2000/svg" viewBox="0 0 1200 800" preserveAspectRatio="xMidYMid slice"><defs><linearGradient id="s" x1="0" y1="0" x2="0" y2="1"><stop offset="0" stop-color="#4a3a5e"/><stop offset="1" stop-color="#e79a7a"/></linearGradient></defs><rect width="1200" height="800" fill="url(#s)"/><circle cx="600" cy="470" r="110" fill="#ffd2a1" opacity=".9"/><path d="M0 800 L0 295.0 L121 360.0 L316 282.0 L469 308.0 L589 273.0 L762 330.0 L960 317.0 L1096 249.0 L1200 337.0 L1200 800Z" fill="#5a4668"/><path d="M0 800 L0 391.0 L170 393.0 L340 317.0 L521 393.0 L648 339.0 L776 344.0 L952 332.0 L1086 378.0 L1200 327.0 L1200 800Z" fill="#3f2f4f"/><path d="M0 800 L0 372.0 L120 384.0 L308 371.0 L474 352.0 L603 399.0 L801 442.0 L940 410.0 L1104 439.0 L1200 391.0 L1200 800Z" fill="#2a1f38"/><rect y="536.0" width="1200" height="800" fill="#2a1f38"/><rect y="556.0" width="1200" height="800" fill="#e79a7a" opacity=".55"/><rect x="487" y="586.0" width="188" height="3" fill="#ffd2a1" opacity=".6"/><rect x="511" y="608.0" width="139" height="3" fill="#ffd2a1" opacity=".6"/><rect x="510" y="630.0" width="141" height="3" fill="#ffd2a1" opacity=".6"/><rect x="499" y="652.0" width="90" height="3" fill="#ffd2a1" opacity=".6"/><rect x="489" y="674.0" width="93" height="3" fill="#ffd2a1" opacity=".6"/><rect x="527" y="696.0" width="123" height="3" fill="#ffd2a1" opacity=".6"/><rect x="527" y="718.0" width="113" height="3" fill="#ffd2a1" opacity=".6"/><rect x="510" y="740.0" width="186" height="3" fill="#ffd2a1" opacity=".6"/></svg>